<?xml version="1.0" encoding="utf-8"?>
<!-- Generator: Adobe Illustrator 21.0.2, SVG Export Plug-In . SVG Version: 6.00 Build 0)  -->
<svg version="1.1" id="Layer_1" xmlns="http://www.w3.org/2000/svg" xmlns:xlink="http://www.w3.org/1999/xlink" x="0px" y="0px"
	 viewBox="0 0 46.1 45.9" style="enable-background:new 0 0 46.1 45.9;" xml:space="preserve">
<style type="text/css">
	.st0{fill:#FF694D;}
</style>
<g>
	<path class="st0"
			d="M22.7,1.4h1.1c5.7,0,10.9,2.4,15.5,7.1c3.6,4.3,5.4,8.9,5.4,13.8v0.9c0,1-0.7,1.8-2.2,2.3h-0.8c-1.6-0.3-2.4-1.3-2.4-3
		c0-4.9-2.2-9.1-6.5-12.7c-3-2.1-6.2-3.1-9.4-3.1h-0.5c-5.4,0-9.8,2.5-13.4,7.4C7.9,16.9,7,19.7,7,22.6v0.5c0,5.4,2.5,9.8,7.4,13.4
		c2.8,1.7,5.9,2.5,9.3,2.5c1.3,0.6,2,1.3,2,2.3V42c0,1.1-0.7,1.8-2.2,2.3h-0.9c-5.7,0-10.9-2.4-15.5-7.2c-3.6-4.3-5.4-8.9-5.4-13.8
		v-1.1c0-5.7,2.4-10.9,7.2-15.5C13.2,3.2,17.8,1.4,22.7,1.4z"/>
</g>
<path d="M29.7,11.5c1.7,0.3,2.5,1.2,2.5,2.5v0.3c0,1-1.2,2.8-3.5,5.3c-2.1,2-3.8,3.3-5.1,3.9v0.1
	c1.6,0.7,3.7,2.4,6.2,5.1c1.6,2,2.4,3.4,2.4,4.2v0.4c0,1.1-0.7,1.8-2.1,2.3h-0.4c-1.2,0-2.1-0.7-2.7-2c-1.8-3-4.8-5.3-9-6.7
	c-1.7-0.5-3.4-0.7-5.3-0.7c-1.3-0.6-2-1.3-2-2.3v-0.6c0-1.1,0.7-1.9,2.2-2.3c5.9,0,10.5-2.4,13.9-7.3C27.5,12.2,28.5,11.5,29.7,11.5
	z"/>
</svg>
