<?xml version="1.0" encoding="UTF-8" standalone="no"?>
<svg width="56px" height="46px" viewBox="0 0 56 46" version="1.1" xmlns="http://www.w3.org/2000/svg" xmlns:xlink="http://www.w3.org/1999/xlink">
    <!-- Generator: Sketch 39.1 (31720) - http://www.bohemiancoding.com/sketch -->
    <title>“ copy</title>
    <desc>Created with Sketch.</desc>
    <defs></defs>
    <g id="Promo-Page" stroke="none" stroke-width="1" fill="none" fill-rule="evenodd">
        <g id="01-01-Index-Unregistered" transform="translate(-672.000000, -5739.000000)" fill="#ff694d">
            <path d="M672,5769.53097 C672,5779.50442 677.841727,5785 684.489209,5785 C690.532374,5785 695.165468,5780.11504 695.165468,5774.21239 C695.165468,5768.10619 691.136691,5763.83186 685.496403,5763.83186 C684.489209,5763.83186 683.079137,5764.0354 682.877698,5764.0354 C683.482014,5757.52212 689.323741,5749.38053 695.769784,5745.10619 L688.316547,5739 C679.05036,5745.71681 672,5757.11504 672,5769.53097 L672,5769.53097 Z M704.230216,5769.53097 C704.230216,5779.50442 710.071942,5785 716.719424,5785 C722.76259,5785 727.597122,5780.11504 727.597122,5774.21239 C727.597122,5768.10619 723.366906,5763.83186 717.726619,5763.83186 C716.719424,5763.83186 715.309353,5764.0354 715.107914,5764.0354 C715.913669,5757.52212 721.553957,5749.38053 728,5745.10619 L720.546763,5739 C711.280576,5745.71681 704.230216,5757.11504 704.230216,5769.53097 L704.230216,5769.53097 Z" id="“-copy"></path>
        </g>
    </g>
</svg>